<svg xmlns="http://www.w3.org/2000/svg" viewBox="0 0 1000 1000"><rect width="1000" height="1000" fill="#ffffff"/><ellipse cx="500" cy="810" rx="200" ry="26" fill="#000" opacity="0.07"/><defs><clipPath id="g"><path d="M330 270 L670 270 L640 770 Q640 800 610 800 L390 800 Q360 800 360 770 Z"/></clipPath></defs><path d="M660 380 c110 0 110 250 -10 250" fill="none" stroke="#dfe7ec" stroke-width="34" stroke-linecap="round"/><path d="M330 270 L670 270 L640 770 Q640 800 610 800 L390 800 Q360 800 360 770 Z" fill="#f3f7f9"/><g clip-path="url(#g)"><rect x="300" y="400" width="400" height="402" fill="#efe3c4"/></g><ellipse cx="500" cy="400" rx="159" ry="22" fill="#efe3c4"/><path d="M330 270 L670 270 L640 770 Q640 800 610 800 L390 800 Q360 800 360 770 Z" fill="none" stroke="#d5dee4" stroke-width="8"/><ellipse cx="500" cy="270" rx="170" ry="26" fill="none" stroke="#d5dee4" stroke-width="8"/><path d="M365 320 L385 740" stroke="#ffffff" stroke-width="16" stroke-linecap="round" opacity="0.85"/><g fill="none" stroke="#cfcfcf" stroke-width="14" stroke-linecap="round" opacity="0.8"><path d="M440 240 q-30 -45 0 -90 q30 -45 0 -90"/><path d="M520 220 q-30 -45 0 -90 q30 -45 0 -90"/></g></svg>